<svg xmlns="http://www.w3.org/2000/svg" xmlns:xlink="http://www.w3.org/1999/xlink" width="291.984" height="43.188" viewBox="0 0 291.984 43.188">
  <defs>
    <linearGradient id="linear-gradient" x2="0.892" y2="1" gradientUnits="objectBoundingBox">
      <stop offset="0" stop-color="#2a39d0"/>
      <stop offset="1" stop-color="#9c3def"/>
    </linearGradient>
  </defs>
  <path id="Animaker" d="M11.672,53H1.281l13.5-40H27.656l13.5,40H30.766L21.375,23.078h-.312ZM10.3,37.25H32.016v7.359H10.3Zm44.719-1.359V53H45.469V23h9.078v5.5h.328a8.47,8.47,0,0,1,3.4-4.314A10.215,10.215,0,0,1,64,22.609a10.432,10.432,0,0,1,5.5,1.412,9.591,9.591,0,0,1,3.633,3.945,12.7,12.7,0,0,1,1.277,5.908V53H64.859V35.75a5.537,5.537,0,0,0-1.266-3.9,4.547,4.547,0,0,0-3.547-1.412,5.2,5.2,0,0,0-2.639.652,4.413,4.413,0,0,0-1.756,1.871A6.521,6.521,0,0,0,55.016,35.891ZM80.344,53V23h9.547V53Zm4.789-33.5a4.921,4.921,0,0,1-3.471-1.34,4.317,4.317,0,0,1,0-6.445,5.151,5.151,0,0,1,6.931,0,4.334,4.334,0,0,1,0,6.445A4.894,4.894,0,0,1,85.133,19.5ZM95.953,53V23h9.078v5.5h.328a8.517,8.517,0,0,1,3.168-4.31,9.73,9.73,0,0,1,10.666.023,6.989,6.989,0,0,1,2.822,4.287h.313a7.83,7.83,0,0,1,3.285-4.279,10.231,10.231,0,0,1,5.762-1.611,9.246,9.246,0,0,1,6.918,2.721,10.222,10.222,0,0,1,2.66,7.467V53h-9.547V34.984a4.7,4.7,0,0,0-1.16-3.426,4.012,4.012,0,0,0-3-1.184,3.885,3.885,0,0,0-3.082,1.279,5.034,5.034,0,0,0-1.121,3.44V53h-9.187V34.891a4.657,4.657,0,0,0-1.129-3.3,3.9,3.9,0,0,0-3-1.213,3.945,3.945,0,0,0-3.693,2.291,5.775,5.775,0,0,0-.541,2.584V53Zm59.391.516a12.563,12.563,0,0,1-5.09-.975,7.8,7.8,0,0,1-3.5-2.934,8.885,8.885,0,0,1-1.273-4.936,9.2,9.2,0,0,1,.875-4.2,7.473,7.473,0,0,1,2.418-2.795,11.625,11.625,0,0,1,3.557-1.635,23.448,23.448,0,0,1,4.291-.756q2.563-.226,4.131-.49a5.644,5.644,0,0,0,2.274-.768,1.638,1.638,0,0,0,.705-1.414v-.094A2.809,2.809,0,0,0,162.7,30.18a4.374,4.374,0,0,0-2.8-.82,5.091,5.091,0,0,0-3.043.828,3.631,3.631,0,0,0-1.457,2.266l-8.813-.312a10.4,10.4,0,0,1,2.025-4.893,10.964,10.964,0,0,1,4.492-3.4A17.25,17.25,0,0,1,160,22.609a19.812,19.812,0,0,1,5.291.67,13.231,13.231,0,0,1,4.215,1.951,9.105,9.105,0,0,1,2.783,3.137,8.857,8.857,0,0,1,.992,4.242V53H164.3V48.812h-.234a8.616,8.616,0,0,1-2.055,2.59,8.394,8.394,0,0,1-2.91,1.582A12.343,12.343,0,0,1,155.344,53.516ZM158.3,47.25a6.126,6.126,0,0,0,2.775-.621,5.056,5.056,0,0,0,1.984-1.727,4.518,4.518,0,0,0,.74-2.574V39.484a5.991,5.991,0,0,1-.982.393q-.58.182-1.266.332t-1.4.273q-.717.123-1.381.221a8.043,8.043,0,0,0-2.3.658,3.6,3.6,0,0,0-1.438,1.168,2.891,2.891,0,0,0-.494,1.689,2.621,2.621,0,0,0,1.061,2.256A4.466,4.466,0,0,0,158.3,47.25ZM187.7,45.125l.047-11.39h1.313L197.5,23h10.828L195.781,38.391h-2.516ZM179.094,53V13h9.547V53Zm18.625,0-7.844-12.469,6.281-6.765L208.765,53Zm26.812.562A16.654,16.654,0,0,1,216.42,51.7a12.7,12.7,0,0,1-5.23-5.328,17.479,17.479,0,0,1-1.83-8.264,17.18,17.18,0,0,1,1.838-8.127,13.345,13.345,0,0,1,5.18-5.43,15.385,15.385,0,0,1,7.873-1.943,16.5,16.5,0,0,1,5.847,1,12.68,12.68,0,0,1,4.6,2.951,13.333,13.333,0,0,1,3,4.807,18.663,18.663,0,0,1,1.066,6.555v2.391H212.7V34.766H229.89a5.324,5.324,0,0,0-.725-2.727,5.064,5.064,0,0,0-1.93-1.863,5.682,5.682,0,0,0-2.8-.676,5.762,5.762,0,0,0-2.873.717,5.357,5.357,0,0,0-2.783,4.689v5.656a6.832,6.832,0,0,0,.721,3.213,5.171,5.171,0,0,0,2.049,2.137,6.277,6.277,0,0,0,3.168.76,7.064,7.064,0,0,0,2.291-.354,4.967,4.967,0,0,0,1.783-1.039,4.246,4.246,0,0,0,1.113-1.67l8.766.25a10.826,10.826,0,0,1-2.395,5.131,12.115,12.115,0,0,1-4.828,3.375A18.471,18.471,0,0,1,224.531,53.562ZM243.672,53V23h9.265v5.469h.313a8.135,8.135,0,0,1,2.68-4.426,6.828,6.828,0,0,1,4.32-1.449,10.872,10.872,0,0,1,1.371.09,9.313,9.313,0,0,1,1.3.254v8.3a9.363,9.363,0,0,0-1.791-.365,16.366,16.366,0,0,0-1.959-.135,6.165,6.165,0,0,0-3.053.752,5.508,5.508,0,0,0-2.125,2.094,6.131,6.131,0,0,0-.775,3.123V53Zm30.672-12.25v-.8a20.454,20.454,0,0,1,.563-5.3,7.931,7.931,0,0,1,1.625-3.176A12.314,12.314,0,0,1,279.14,29.3a23.766,23.766,0,0,0,2.2-1.6,6.9,6.9,0,0,0,1.541-1.744,4.03,4.03,0,0,0,.568-2.125,3.68,3.68,0,0,0-2.051-3.395,4.529,4.529,0,0,0-2.09-.48,4.644,4.644,0,0,0-2.172.523,4.259,4.259,0,0,0-1.637,1.5,4.41,4.41,0,0,0-.66,2.34h-8.984a11.736,11.736,0,0,1,1.908-6.723,10.966,10.966,0,0,1,4.895-3.879,17.437,17.437,0,0,1,6.713-1.258,19.23,19.23,0,0,1,7.166,1.25,11.017,11.017,0,0,1,4.93,3.687,9.814,9.814,0,0,1,1.795,5.984,10.121,10.121,0,0,1-.779,4.1,9.9,9.9,0,0,1-2.172,3.137,16.907,16.907,0,0,1-3.268,2.461,13.421,13.421,0,0,0-2.441,1.8,6.061,6.061,0,0,0-1.457,2.139,8.013,8.013,0,0,0-.492,2.941v.8Zm4.312,12.813a4.931,4.931,0,0,1-3.6-1.48,4.819,4.819,0,0,1-1.481-3.6,4.739,4.739,0,0,1,1.481-3.543,5.055,5.055,0,0,1,7.133,0,4.8,4.8,0,0,1,1.543,3.543,4.88,4.88,0,0,1-.728,2.563,5.423,5.423,0,0,1-1.855,1.834A4.78,4.78,0,0,1,278.656,53.562Z" transform="translate(-1.281 -10.375)" fill="url(#linear-gradient)"/>
</svg>
