<svg xmlns="http://www.w3.org/2000/svg" xmlns:xlink="http://www.w3.org/1999/xlink" width="533.843" height="51.797" viewBox="0 0 533.843 51.797">
  <defs>
    <linearGradient id="linear-gradient" x2="0.892" y2="1" gradientUnits="objectBoundingBox">
      <stop offset="0" stop-color="#2a39d0"/>
      <stop offset="1" stop-color="#9c3def"/>
    </linearGradient>
  </defs>
  <path id="Top-notch_Creators" data-name="Top-notch Creators" d="M1.719,20.859V13H35.531v7.859H23.391V53H13.859V20.859Zm48.187,32.7a16.069,16.069,0,0,1-8.111-1.941A13.163,13.163,0,0,1,36.576,46.2a17.207,17.207,0,0,1-1.826-8.1,17.248,17.248,0,0,1,1.826-8.113,13.158,13.158,0,0,1,5.219-5.43,16.069,16.069,0,0,1,8.111-1.941,16.069,16.069,0,0,1,8.111,1.941,13.158,13.158,0,0,1,5.219,5.43,17.248,17.248,0,0,1,1.826,8.113,17.207,17.207,0,0,1-1.826,8.1,13.163,13.163,0,0,1-5.219,5.426A16.069,16.069,0,0,1,49.906,53.562Zm.063-7.2a4.248,4.248,0,0,0,2.906-1.051A6.577,6.577,0,0,0,54.7,42.383a13.687,13.687,0,0,0,.629-4.352,13.7,13.7,0,0,0-.629-4.363,6.608,6.608,0,0,0-1.824-2.926,4.238,4.238,0,0,0-2.906-1.055,4.442,4.442,0,0,0-3,1.055,6.473,6.473,0,0,0-1.856,2.926,13.7,13.7,0,0,0-.629,4.363,13.687,13.687,0,0,0,.629,4.352,6.443,6.443,0,0,0,1.856,2.926A4.453,4.453,0,0,0,49.969,46.359Zm20,17.891V23h9.453v5.141h.3A9.874,9.874,0,0,1,81.377,25.5,8.378,8.378,0,0,1,84.15,23.42a9.28,9.28,0,0,1,4.053-.811,11.148,11.148,0,0,1,5.859,1.645,11.725,11.725,0,0,1,4.4,5.059,19.744,19.744,0,0,1,1.676,8.7,20.037,20.037,0,0,1-1.613,8.541,11.874,11.874,0,0,1-4.336,5.156,11.048,11.048,0,0,1-6.035,1.725,9.545,9.545,0,0,1-3.934-.748,8.431,8.431,0,0,1-2.785-1.957,9.264,9.264,0,0,1-1.719-2.592h-.2V64.25ZM79.312,38a12.2,12.2,0,0,0,.66,4.221A6.193,6.193,0,0,0,81.867,45a5.005,5.005,0,0,0,5.967,0A6.109,6.109,0,0,0,89.7,42.217,12.512,12.512,0,0,0,90.344,38a12.452,12.452,0,0,0-.639-4.2,6.033,6.033,0,0,0-1.863-2.762,4.651,4.651,0,0,0-3-.979,4.7,4.7,0,0,0-2.984.963,6.008,6.008,0,0,0-1.891,2.742A12.242,12.242,0,0,0,79.312,38Zm45.047-4.859V40.5h-18.5V33.141Zm16.3,2.75V53h-9.547V23h9.078v5.5h.328a8.471,8.471,0,0,1,3.4-4.314,10.215,10.215,0,0,1,5.727-1.576,10.432,10.432,0,0,1,5.5,1.412,9.591,9.591,0,0,1,3.633,3.945,12.7,12.7,0,0,1,1.277,5.908V53H150.5V35.75a5.537,5.537,0,0,0-1.266-3.9,4.547,4.547,0,0,0-3.547-1.412,5.2,5.2,0,0,0-2.639.652,4.413,4.413,0,0,0-1.756,1.871A6.521,6.521,0,0,0,140.656,35.891Zm39.328,17.672a16.069,16.069,0,0,1-8.111-1.941,13.163,13.163,0,0,1-5.219-5.426,17.207,17.207,0,0,1-1.826-8.1,17.248,17.248,0,0,1,1.826-8.113,13.158,13.158,0,0,1,5.219-5.43,17.916,17.916,0,0,1,16.223,0,13.158,13.158,0,0,1,5.219,5.43,17.248,17.248,0,0,1,1.826,8.113,17.207,17.207,0,0,1-1.826,8.1,13.163,13.163,0,0,1-5.219,5.426A16.069,16.069,0,0,1,179.984,53.562Zm.063-7.2a4.248,4.248,0,0,0,2.906-1.051,6.577,6.577,0,0,0,1.824-2.926,13.687,13.687,0,0,0,.629-4.352,13.7,13.7,0,0,0-.629-4.363,6.608,6.608,0,0,0-1.824-2.926,4.238,4.238,0,0,0-2.906-1.055,4.442,4.442,0,0,0-3,1.055,6.473,6.473,0,0,0-1.856,2.926,13.7,13.7,0,0,0-.629,4.363,13.687,13.687,0,0,0,.629,4.352,6.443,6.443,0,0,0,1.856,2.926A4.453,4.453,0,0,0,180.047,46.359ZM216.968,23v7.031H198.047V23Zm-14.953-7.187h9.547v27.75a2.986,2.986,0,0,0,.287,1.42,1.651,1.651,0,0,0,.828.758,3.353,3.353,0,0,0,1.307.228,6.623,6.623,0,0,0,1.164-.111q.621-.111.93-.186l1.437,6.891q-.672.207-1.91.494a16.645,16.645,0,0,1-2.965.365,13.892,13.892,0,0,1-5.748-.785,7.325,7.325,0,0,1-3.648-2.957,9.192,9.192,0,0,1-1.229-5.055Zm33.531,37.75a16.047,16.047,0,0,1-8.141-1.953,13.148,13.148,0,0,1-5.2-5.441,17.268,17.268,0,0,1-1.812-8.074A17.238,17.238,0,0,1,222.213,30a13.2,13.2,0,0,1,5.211-5.441,15.983,15.983,0,0,1,8.108-1.951,16.39,16.39,0,0,1,7.258,1.508,11.643,11.643,0,0,1,4.84,4.25,12.314,12.314,0,0,1,1.84,6.43h-8.922a6.047,6.047,0,0,0-1.553-3.611,4.429,4.429,0,0,0-3.322-1.311,4.749,4.749,0,0,0-2.912.928,5.95,5.95,0,0,0-1.942,2.738A12.534,12.534,0,0,0,230.125,38a12.73,12.73,0,0,0,.69,4.484,5.964,5.964,0,0,0,1.938,2.754,5.055,5.055,0,0,0,5.26.363A4.543,4.543,0,0,0,239.7,43.93a6.578,6.578,0,0,0,.844-2.68h8.922a12.943,12.943,0,0,1-1.838,6.478,11.511,11.511,0,0,1-4.785,4.3A16.211,16.211,0,0,1,235.547,53.562Zm28.375-17.672V53h-9.547V13h9.234V28.5h.328a8.732,8.732,0,0,1,3.338-4.326,9.9,9.9,0,0,1,5.677-1.564,10.528,10.528,0,0,1,5.5,1.4,9.519,9.519,0,0,1,3.639,3.934,12.736,12.736,0,0,1,1.279,5.932V53h-9.547V35.75a5.572,5.572,0,0,0-1.252-3.9A4.564,4.564,0,0,0,269,30.437a5.258,5.258,0,0,0-2.646.652,4.478,4.478,0,0,0-1.781,1.871A6.4,6.4,0,0,0,263.922,35.891ZM337.468,27.5h-9.781a8.08,8.08,0,0,0-.791-2.719,6.747,6.747,0,0,0-1.609-2.072,6.986,6.986,0,0,0-2.35-1.326,9.249,9.249,0,0,0-3-.461,8.673,8.673,0,0,0-5.01,1.43,9.013,9.013,0,0,0-3.215,4.129A17.006,17.006,0,0,0,310.593,33a17.2,17.2,0,0,0,1.135,6.668,8.687,8.687,0,0,0,3.223,4.051,8.821,8.821,0,0,0,4.924,1.359,9.73,9.73,0,0,0,2.922-.414,7.175,7.175,0,0,0,2.326-1.209,6.732,6.732,0,0,0,1.664-1.934,7.64,7.64,0,0,0,.9-2.584l9.781.063a15.229,15.229,0,0,1-1.539,5.23,16.432,16.432,0,0,1-3.508,4.7A16.677,16.677,0,0,1,327,52.293a19.871,19.871,0,0,1-7.31,1.254,19.62,19.62,0,0,1-9.719-2.391,17.053,17.053,0,0,1-6.77-6.984A23.236,23.236,0,0,1,300.719,33a22.964,22.964,0,0,1,2.52-11.2,17.249,17.249,0,0,1,6.816-6.969,19.524,19.524,0,0,1,9.633-2.383,21.565,21.565,0,0,1,6.717,1,16.616,16.616,0,0,1,5.432,2.928,14.992,14.992,0,0,1,3.813,4.719A17.408,17.408,0,0,1,337.468,27.5Zm5.5,25.5V23h9.265v5.469h.313a8.135,8.135,0,0,1,2.68-4.426,6.828,6.828,0,0,1,4.32-1.449,10.871,10.871,0,0,1,1.371.09,9.314,9.314,0,0,1,1.3.254v8.3a9.363,9.363,0,0,0-1.791-.365,16.366,16.366,0,0,0-1.959-.135,6.165,6.165,0,0,0-3.053.752,5.508,5.508,0,0,0-2.125,2.094,6.13,6.13,0,0,0-.775,3.123V53Zm35.609.562a16.654,16.654,0,0,1-8.111-1.861,12.7,12.7,0,0,1-5.23-5.328,17.479,17.479,0,0,1-1.83-8.264,17.18,17.18,0,0,1,1.838-8.127,13.345,13.345,0,0,1,5.18-5.43,15.385,15.385,0,0,1,7.873-1.943,16.5,16.5,0,0,1,5.847,1,12.68,12.68,0,0,1,4.6,2.951,13.333,13.333,0,0,1,3,4.807,18.662,18.662,0,0,1,1.066,6.555v2.391H366.75V34.766h17.188a5.324,5.324,0,0,0-.725-2.727,5.064,5.064,0,0,0-1.93-1.863,5.682,5.682,0,0,0-2.8-.676,5.762,5.762,0,0,0-2.873.717,5.357,5.357,0,0,0-2.783,4.689v5.656a6.832,6.832,0,0,0,.721,3.213,5.171,5.171,0,0,0,2.049,2.137,6.277,6.277,0,0,0,3.168.76,7.064,7.064,0,0,0,2.291-.354,4.967,4.967,0,0,0,1.783-1.039,4.246,4.246,0,0,0,1.113-1.67l8.766.25a10.826,10.826,0,0,1-2.395,5.131,12.115,12.115,0,0,1-4.828,3.375A18.471,18.471,0,0,1,378.578,53.562Zm27.594-.047a12.563,12.563,0,0,1-5.09-.975,7.8,7.8,0,0,1-3.5-2.934,8.885,8.885,0,0,1-1.273-4.936,9.2,9.2,0,0,1,.875-4.2,7.473,7.473,0,0,1,2.418-2.795,11.625,11.625,0,0,1,3.557-1.635,23.448,23.448,0,0,1,4.291-.756q2.563-.226,4.131-.49a5.644,5.644,0,0,0,2.274-.768,1.638,1.638,0,0,0,.705-1.414v-.094a2.809,2.809,0,0,0-1.033-2.336,4.374,4.374,0,0,0-2.8-.82,5.091,5.091,0,0,0-3.043.828,3.631,3.631,0,0,0-1.457,2.266l-8.813-.312a10.4,10.4,0,0,1,2.025-4.893,10.964,10.964,0,0,1,4.492-3.4,17.25,17.25,0,0,1,6.889-1.24,19.813,19.813,0,0,1,5.291.67,13.231,13.231,0,0,1,4.215,1.951,9.1,9.1,0,0,1,2.783,3.137,8.857,8.857,0,0,1,.992,4.242V53h-8.984V48.812h-.234a8.616,8.616,0,0,1-2.055,2.59,8.394,8.394,0,0,1-2.91,1.582A12.343,12.343,0,0,1,406.172,53.516Zm2.953-6.266a6.126,6.126,0,0,0,2.775-.621,5.056,5.056,0,0,0,1.984-1.727,4.518,4.518,0,0,0,.74-2.574V39.484a5.992,5.992,0,0,1-.982.393q-.58.182-1.266.332t-1.4.273q-.717.123-1.381.221a8.043,8.043,0,0,0-2.3.658,3.6,3.6,0,0,0-1.438,1.168,2.891,2.891,0,0,0-.494,1.689,2.621,2.621,0,0,0,1.061,2.256A4.466,4.466,0,0,0,409.125,47.25ZM446.843,23v7.031H427.922V23ZM431.89,15.813h9.547v27.75a2.986,2.986,0,0,0,.287,1.42,1.651,1.651,0,0,0,.828.758,3.353,3.353,0,0,0,1.307.228,6.623,6.623,0,0,0,1.164-.111q.621-.111.93-.186l1.437,6.891q-.672.207-1.91.494a16.645,16.645,0,0,1-2.965.365,13.892,13.892,0,0,1-5.748-.785,7.325,7.325,0,0,1-3.648-2.957,9.192,9.192,0,0,1-1.229-5.055Zm33.531,37.75a16.069,16.069,0,0,1-8.111-1.941,13.163,13.163,0,0,1-5.219-5.426,17.207,17.207,0,0,1-1.826-8.1,17.249,17.249,0,0,1,1.826-8.113,13.158,13.158,0,0,1,5.219-5.43,17.916,17.916,0,0,1,16.223,0,13.158,13.158,0,0,1,5.219,5.43,17.249,17.249,0,0,1,1.826,8.113,17.207,17.207,0,0,1-1.826,8.1,13.163,13.163,0,0,1-5.219,5.426A16.069,16.069,0,0,1,465.422,53.562Zm.063-7.2a4.248,4.248,0,0,0,2.906-1.051,6.577,6.577,0,0,0,1.824-2.926,13.687,13.687,0,0,0,.629-4.352,13.7,13.7,0,0,0-.629-4.363,6.608,6.608,0,0,0-1.824-2.926,4.238,4.238,0,0,0-2.906-1.055,4.442,4.442,0,0,0-3,1.055,6.473,6.473,0,0,0-1.856,2.926A13.7,13.7,0,0,0,460,38.031a13.687,13.687,0,0,0,.629,4.352,6.443,6.443,0,0,0,1.856,2.926A4.453,4.453,0,0,0,465.484,46.359Zm20,6.641V23h9.265v5.469h.313a8.135,8.135,0,0,1,2.68-4.426,6.828,6.828,0,0,1,4.32-1.449,10.871,10.871,0,0,1,1.371.09,9.314,9.314,0,0,1,1.3.254v8.3a9.363,9.363,0,0,0-1.791-.365,16.366,16.366,0,0,0-1.959-.135,6.165,6.165,0,0,0-3.053.752,5.508,5.508,0,0,0-2.125,2.094,6.13,6.13,0,0,0-.775,3.123V53Zm49.344-20.844-8.766.234a3.344,3.344,0,0,0-.744-1.67,4.116,4.116,0,0,0-1.572-1.146,5.586,5.586,0,0,0-2.23-.418,5.646,5.646,0,0,0-2.823.658,1.965,1.965,0,0,0-1.146,1.795,1.944,1.944,0,0,0,.711,1.527,5.77,5.77,0,0,0,2.633,1.035l5.765,1.094a13.785,13.785,0,0,1,6.691,2.854,6.805,6.805,0,0,1,2.215,5.271,8.493,8.493,0,0,1-1.818,5.367,11.633,11.633,0,0,1-4.932,3.547,19.068,19.068,0,0,1-7.156,1.258q-6.418,0-10.121-2.648a9.786,9.786,0,0,1-4.223-7.1l9.437-.219a3.614,3.614,0,0,0,1.607,2.484,5.99,5.99,0,0,0,3.346.86,5.817,5.817,0,0,0,2.986-.682,2.088,2.088,0,0,0,1.17-1.819,1.935,1.935,0,0,0-.9-1.619,7.283,7.283,0,0,0-2.742-.975l-5.25-.984a12.523,12.523,0,0,1-6.709-3.045,7.6,7.6,0,0,1-2.2-5.658,8.167,8.167,0,0,1,1.608-5.141,10.151,10.151,0,0,1,4.613-3.269,19.8,19.8,0,0,1,7.045-1.137q6.094,0,9.611,2.547A9.18,9.18,0,0,1,534.828,32.156Z" transform="translate(-1.719 -12.453)" fill="url(#linear-gradient)"/>
</svg>
