<svg xmlns="http://www.w3.org/2000/svg" xmlns:xlink="http://www.w3.org/1999/xlink" width="354.109" height="43.188" viewBox="0 0 354.109 43.188">
  <defs>
    <linearGradient id="linear-gradient" x2="0.892" y2="1" gradientUnits="objectBoundingBox">
      <stop offset="0" stop-color="#2a39d0"/>
      <stop offset="1" stop-color="#9c3def"/>
    </linearGradient>
  </defs>
  <path id="Who_is_it_for_" data-name="Who is it for?" d="M12.609,53,.984,13H11.656L17.7,39.2h.328L24.922,13H33.64l6.891,26.266h.328L46.906,13H57.578L45.953,53H36.641l-7.2-24.25h-.312L21.922,53ZM71.141,35.891V53H61.594V13h9.234V28.5h.328a8.732,8.732,0,0,1,3.338-4.326,9.9,9.9,0,0,1,5.677-1.564,10.528,10.528,0,0,1,5.5,1.4,9.519,9.519,0,0,1,3.639,3.934,12.736,12.736,0,0,1,1.279,5.932V53H81.047V35.75a5.572,5.572,0,0,0-1.252-3.9,4.564,4.564,0,0,0-3.576-1.408,5.258,5.258,0,0,0-2.646.652,4.478,4.478,0,0,0-1.781,1.871A6.4,6.4,0,0,0,71.141,35.891Zm39.391,17.672a16.069,16.069,0,0,1-8.111-1.941A13.163,13.163,0,0,1,97.2,46.2a17.207,17.207,0,0,1-1.826-8.1A17.248,17.248,0,0,1,97.2,29.98a13.158,13.158,0,0,1,5.219-5.43,17.916,17.916,0,0,1,16.223,0,13.158,13.158,0,0,1,5.219,5.43,17.248,17.248,0,0,1,1.826,8.113,17.207,17.207,0,0,1-1.826,8.1,13.163,13.163,0,0,1-5.219,5.426A16.069,16.069,0,0,1,110.531,53.562Zm.063-7.2a4.248,4.248,0,0,0,2.906-1.051,6.577,6.577,0,0,0,1.824-2.926,13.687,13.687,0,0,0,.629-4.352,13.7,13.7,0,0,0-.629-4.363,6.608,6.608,0,0,0-1.824-2.926,4.238,4.238,0,0,0-2.906-1.055,4.442,4.442,0,0,0-3,1.055,6.473,6.473,0,0,0-1.856,2.926,13.7,13.7,0,0,0-.629,4.363,13.687,13.687,0,0,0,.629,4.352,6.443,6.443,0,0,0,1.856,2.926A4.453,4.453,0,0,0,110.594,46.359ZM142.437,53V23h9.547V53Zm4.789-33.5a4.921,4.921,0,0,1-3.471-1.34,4.317,4.317,0,0,1,0-6.445,5.151,5.151,0,0,1,6.931,0,4.334,4.334,0,0,1,0,6.445A4.894,4.894,0,0,1,147.227,19.5Zm37.008,12.656-8.766.234a3.344,3.344,0,0,0-.744-1.67,4.116,4.116,0,0,0-1.572-1.146,5.587,5.587,0,0,0-2.23-.418,5.646,5.646,0,0,0-2.823.658,1.965,1.965,0,0,0-1.146,1.795,1.944,1.944,0,0,0,.711,1.527,5.77,5.77,0,0,0,2.633,1.035l5.765,1.094a13.785,13.785,0,0,1,6.691,2.854,6.805,6.805,0,0,1,2.215,5.271,8.493,8.493,0,0,1-1.818,5.367,11.633,11.633,0,0,1-4.932,3.547,19.068,19.068,0,0,1-7.156,1.258q-6.418,0-10.121-2.648a9.786,9.786,0,0,1-4.223-7.1l9.437-.219a3.614,3.614,0,0,0,1.608,2.484,5.99,5.99,0,0,0,3.346.86,5.816,5.816,0,0,0,2.986-.682,2.088,2.088,0,0,0,1.17-1.819,1.935,1.935,0,0,0-.9-1.619,7.283,7.283,0,0,0-2.742-.975l-5.25-.984a12.523,12.523,0,0,1-6.709-3.045,7.6,7.6,0,0,1-2.2-5.658,8.168,8.168,0,0,1,1.608-5.141,10.151,10.151,0,0,1,4.613-3.269,19.8,19.8,0,0,1,7.045-1.137q6.094,0,9.611,2.547A9.18,9.18,0,0,1,184.234,32.156ZM201.516,53V23h9.547V53ZM206.3,19.5a4.921,4.921,0,0,1-3.471-1.34,4.317,4.317,0,0,1,0-6.445,5.151,5.151,0,0,1,6.931,0,4.334,4.334,0,0,1,0,6.445A4.894,4.894,0,0,1,206.3,19.5ZM234.047,23v7.031H215.125V23Zm-14.953-7.187h9.547v27.75a2.986,2.986,0,0,0,.287,1.42,1.651,1.651,0,0,0,.828.758,3.353,3.353,0,0,0,1.307.228,6.623,6.623,0,0,0,1.164-.111q.621-.111.93-.186l1.437,6.891q-.672.207-1.91.494a16.645,16.645,0,0,1-2.965.365,13.892,13.892,0,0,1-5.748-.785,7.325,7.325,0,0,1-3.648-2.957,9.192,9.192,0,0,1-1.229-5.055ZM267.828,23v7.031h-19.3V23ZM252.562,53V21.484a11.58,11.58,0,0,1,1.3-5.781,8.3,8.3,0,0,1,3.629-3.437,12.065,12.065,0,0,1,5.379-1.141,22.088,22.088,0,0,1,3.75.3q1.77.3,2.625.539l-1.516,6.984a9.911,9.911,0,0,0-1.287-.285,8.883,8.883,0,0,0-1.416-.121,2.887,2.887,0,0,0-2.3.746,3.078,3.078,0,0,0-.623,2.035V53Zm32.875.562a16.069,16.069,0,0,1-8.111-1.941,13.163,13.163,0,0,1-5.219-5.426,17.207,17.207,0,0,1-1.826-8.1,17.249,17.249,0,0,1,1.826-8.113,13.158,13.158,0,0,1,5.219-5.43,17.916,17.916,0,0,1,16.223,0,13.158,13.158,0,0,1,5.219,5.43,17.249,17.249,0,0,1,1.826,8.113,17.207,17.207,0,0,1-1.826,8.1,13.163,13.163,0,0,1-5.219,5.426A16.069,16.069,0,0,1,285.437,53.562Zm.063-7.2a4.248,4.248,0,0,0,2.906-1.051,6.577,6.577,0,0,0,1.824-2.926,13.687,13.687,0,0,0,.629-4.352,13.7,13.7,0,0,0-.629-4.363,6.608,6.608,0,0,0-1.824-2.926,4.238,4.238,0,0,0-2.906-1.055,4.442,4.442,0,0,0-3,1.055,6.473,6.473,0,0,0-1.856,2.926,13.7,13.7,0,0,0-.629,4.363,13.687,13.687,0,0,0,.629,4.352,6.443,6.443,0,0,0,1.856,2.926A4.453,4.453,0,0,0,285.5,46.359ZM305.5,53V23h9.265v5.469h.313a8.135,8.135,0,0,1,2.68-4.426,6.828,6.828,0,0,1,4.32-1.449,10.871,10.871,0,0,1,1.371.09,9.314,9.314,0,0,1,1.3.254v8.3a9.363,9.363,0,0,0-1.791-.365A16.366,16.366,0,0,0,321,30.734a6.165,6.165,0,0,0-3.053.752,5.508,5.508,0,0,0-2.125,2.094,6.13,6.13,0,0,0-.775,3.123V53Zm30.672-12.25v-.8a20.454,20.454,0,0,1,.563-5.3,7.931,7.931,0,0,1,1.625-3.176,12.314,12.314,0,0,1,2.609-2.183,23.766,23.766,0,0,0,2.2-1.6,6.9,6.9,0,0,0,1.541-1.744,4.03,4.03,0,0,0,.568-2.125,3.68,3.68,0,0,0-2.051-3.395,4.529,4.529,0,0,0-2.09-.48,4.644,4.644,0,0,0-2.172.523,4.259,4.259,0,0,0-1.637,1.5,4.41,4.41,0,0,0-.66,2.34h-8.984A11.736,11.736,0,0,1,329.6,17.59a10.966,10.966,0,0,1,4.895-3.879,17.437,17.437,0,0,1,6.713-1.258,19.23,19.23,0,0,1,7.166,1.25,11.017,11.017,0,0,1,4.93,3.687,9.814,9.814,0,0,1,1.795,5.984,10.121,10.121,0,0,1-.779,4.1,9.9,9.9,0,0,1-2.172,3.137,16.907,16.907,0,0,1-3.268,2.461,13.421,13.421,0,0,0-2.441,1.8,6.061,6.061,0,0,0-1.457,2.139,8.013,8.013,0,0,0-.492,2.941v.8Zm4.312,12.813a4.931,4.931,0,0,1-3.6-1.48,4.819,4.819,0,0,1-1.481-3.6,4.739,4.739,0,0,1,1.481-3.543,5.055,5.055,0,0,1,7.133,0,4.8,4.8,0,0,1,1.543,3.543,4.88,4.88,0,0,1-.728,2.563,5.423,5.423,0,0,1-1.855,1.834A4.78,4.78,0,0,1,340.484,53.562Z" transform="translate(-0.984 -10.375)" fill="url(#linear-gradient)"/>
</svg>
