<svg xmlns="http://www.w3.org/2000/svg" xmlns:xlink="http://www.w3.org/1999/xlink" width="493.094" height="41.109" viewBox="0 0 493.094 41.109">
  <defs>
    <linearGradient id="linear-gradient" x2="0.892" y2="1" gradientUnits="objectBoundingBox">
      <stop offset="0" stop-color="#2a39d0"/>
      <stop offset="1" stop-color="#9c3def"/>
    </linearGradient>
  </defs>
  <path id="Our_users_love_us" data-name="Our users love us" d="M40.781,33a22.849,22.849,0,0,1-2.535,11.2,17.291,17.291,0,0,1-6.863,6.969,19.765,19.765,0,0,1-9.7,2.383,19.682,19.682,0,0,1-9.719-2.4,17.36,17.36,0,0,1-6.848-6.984A22.837,22.837,0,0,1,2.594,33,22.906,22.906,0,0,1,5.121,21.8a17.255,17.255,0,0,1,6.848-6.969,19.784,19.784,0,0,1,9.719-2.383,19.765,19.765,0,0,1,9.7,2.383A17.291,17.291,0,0,1,38.246,21.8,22.849,22.849,0,0,1,40.781,33Zm-9.875,0a17.446,17.446,0,0,0-1.1-6.606,8.756,8.756,0,0,0-3.168-4.082,8.645,8.645,0,0,0-4.947-1.391,8.646,8.646,0,0,0-4.948,1.391,8.756,8.756,0,0,0-3.168,4.082A17.446,17.446,0,0,0,12.469,33a17.446,17.446,0,0,0,1.1,6.606,8.756,8.756,0,0,0,3.168,4.082,8.646,8.646,0,0,0,4.948,1.391,8.645,8.645,0,0,0,4.947-1.391A8.756,8.756,0,0,0,29.8,39.606,17.446,17.446,0,0,0,30.906,33ZM65.75,40.047V23H75.3V53H66.187V47.422h-.312a8.638,8.638,0,0,1-3.391,4.361,10.115,10.115,0,0,1-5.766,1.607,10.221,10.221,0,0,1-5.4-1.4,9.556,9.556,0,0,1-3.609-3.938,13.034,13.034,0,0,1-1.3-5.924V23h9.547V40.25a5.586,5.586,0,0,0,1.283,3.844A4.432,4.432,0,0,0,60.7,45.5a5.2,5.2,0,0,0,2.568-.637,4.633,4.633,0,0,0,1.82-1.852A5.92,5.92,0,0,0,65.75,40.047ZM81.359,53V23h9.265v5.469h.313a8.135,8.135,0,0,1,2.68-4.426,6.828,6.828,0,0,1,4.32-1.449,10.872,10.872,0,0,1,1.371.09,9.314,9.314,0,0,1,1.3.254v8.3a9.363,9.363,0,0,0-1.791-.365,16.366,16.366,0,0,0-1.959-.135,6.165,6.165,0,0,0-3.053.752,5.508,5.508,0,0,0-2.125,2.094,6.131,6.131,0,0,0-.775,3.123V53Zm59.188-40H150.2V38.8a13.631,13.631,0,0,1-8.062,12.9,22.611,22.611,0,0,1-17.75,0,13.959,13.959,0,0,1-5.92-5.121,14.149,14.149,0,0,1-2.111-7.783V13h9.656V37.969a7.373,7.373,0,0,0,.914,3.689,6.53,6.53,0,0,0,2.557,2.535,8.339,8.339,0,0,0,7.6,0,6.527,6.527,0,0,0,2.549-2.535,7.385,7.385,0,0,0,.912-3.689Zm41.906,19.156-8.766.234a3.344,3.344,0,0,0-.744-1.67,4.116,4.116,0,0,0-1.572-1.146,5.587,5.587,0,0,0-2.23-.418,5.646,5.646,0,0,0-2.823.658,1.965,1.965,0,0,0-1.146,1.795,1.944,1.944,0,0,0,.711,1.527,5.77,5.77,0,0,0,2.633,1.035l5.765,1.094a13.785,13.785,0,0,1,6.691,2.854,6.805,6.805,0,0,1,2.215,5.271,8.493,8.493,0,0,1-1.818,5.367,11.633,11.633,0,0,1-4.932,3.547,19.068,19.068,0,0,1-7.156,1.258q-6.418,0-10.121-2.648a9.786,9.786,0,0,1-4.223-7.1l9.437-.219a3.614,3.614,0,0,0,1.608,2.484,5.99,5.99,0,0,0,3.346.86,5.816,5.816,0,0,0,2.986-.682,2.088,2.088,0,0,0,1.17-1.819,1.935,1.935,0,0,0-.9-1.619,7.283,7.283,0,0,0-2.742-.975l-5.25-.984a12.523,12.523,0,0,1-6.709-3.045,7.6,7.6,0,0,1-2.2-5.658,8.168,8.168,0,0,1,1.608-5.141,10.151,10.151,0,0,1,4.613-3.269,19.8,19.8,0,0,1,7.045-1.137q6.094,0,9.611,2.547A9.18,9.18,0,0,1,182.453,32.156Zm19.453,21.406a16.654,16.654,0,0,1-8.111-1.861,12.7,12.7,0,0,1-5.23-5.328,17.479,17.479,0,0,1-1.83-8.264,17.18,17.18,0,0,1,1.838-8.127,13.345,13.345,0,0,1,5.18-5.43,15.385,15.385,0,0,1,7.873-1.943,16.5,16.5,0,0,1,5.847,1,12.68,12.68,0,0,1,4.6,2.951,13.333,13.333,0,0,1,3,4.807,18.663,18.663,0,0,1,1.066,6.555v2.391H190.078V34.766h17.188a5.324,5.324,0,0,0-.725-2.727,5.064,5.064,0,0,0-1.93-1.863,5.682,5.682,0,0,0-2.8-.676,5.762,5.762,0,0,0-2.873.717,5.357,5.357,0,0,0-2.783,4.689v5.656a6.832,6.832,0,0,0,.721,3.213,5.171,5.171,0,0,0,2.049,2.137,6.277,6.277,0,0,0,3.168.76,7.064,7.064,0,0,0,2.291-.354,4.967,4.967,0,0,0,1.783-1.039,4.246,4.246,0,0,0,1.113-1.67l8.766.25a10.826,10.826,0,0,1-2.395,5.131,12.115,12.115,0,0,1-4.828,3.375A18.471,18.471,0,0,1,201.906,53.562ZM221.047,53V23h9.265v5.469h.313a8.135,8.135,0,0,1,2.68-4.426,6.828,6.828,0,0,1,4.32-1.449,10.872,10.872,0,0,1,1.371.09,9.314,9.314,0,0,1,1.3.254v8.3a9.363,9.363,0,0,0-1.791-.365,16.366,16.366,0,0,0-1.959-.135,6.165,6.165,0,0,0-3.053.752,5.508,5.508,0,0,0-2.125,2.094,6.131,6.131,0,0,0-.775,3.123V53Zm49.344-20.844-8.766.234a3.344,3.344,0,0,0-.744-1.67,4.116,4.116,0,0,0-1.572-1.146,5.586,5.586,0,0,0-2.23-.418,5.646,5.646,0,0,0-2.823.658,1.965,1.965,0,0,0-1.146,1.795,1.944,1.944,0,0,0,.711,1.527,5.77,5.77,0,0,0,2.633,1.035l5.765,1.094a13.785,13.785,0,0,1,6.691,2.854,6.805,6.805,0,0,1,2.215,5.271,8.493,8.493,0,0,1-1.818,5.367,11.633,11.633,0,0,1-4.932,3.547,19.068,19.068,0,0,1-7.156,1.258q-6.418,0-10.121-2.648a9.786,9.786,0,0,1-4.223-7.1l9.437-.219a3.614,3.614,0,0,0,1.608,2.484,5.99,5.99,0,0,0,3.346.86,5.816,5.816,0,0,0,2.986-.682,2.088,2.088,0,0,0,1.17-1.819,1.935,1.935,0,0,0-.9-1.619,7.283,7.283,0,0,0-2.742-.975l-5.25-.984a12.523,12.523,0,0,1-6.709-3.045,7.6,7.6,0,0,1-2.2-5.658,8.168,8.168,0,0,1,1.608-5.141,10.151,10.151,0,0,1,4.613-3.269,19.8,19.8,0,0,1,7.045-1.137q6.094,0,9.611,2.547A9.18,9.18,0,0,1,270.391,32.156ZM287.672,53V13h9.656V45.141h16.656V53Zm45.312.562a16.069,16.069,0,0,1-8.111-1.941,13.163,13.163,0,0,1-5.219-5.426,17.207,17.207,0,0,1-1.826-8.1,17.249,17.249,0,0,1,1.826-8.113,13.158,13.158,0,0,1,5.219-5.43,17.916,17.916,0,0,1,16.223,0,13.158,13.158,0,0,1,5.219,5.43,17.249,17.249,0,0,1,1.826,8.113,17.207,17.207,0,0,1-1.826,8.1,13.163,13.163,0,0,1-5.219,5.426A16.069,16.069,0,0,1,332.984,53.562Zm.063-7.2a4.248,4.248,0,0,0,2.906-1.051,6.577,6.577,0,0,0,1.824-2.926,13.687,13.687,0,0,0,.629-4.352,13.7,13.7,0,0,0-.629-4.363,6.608,6.608,0,0,0-1.824-2.926,4.238,4.238,0,0,0-2.906-1.055,4.442,4.442,0,0,0-3,1.055,6.473,6.473,0,0,0-1.856,2.926,13.7,13.7,0,0,0-.629,4.363,13.687,13.687,0,0,0,.629,4.352,6.443,6.443,0,0,0,1.856,2.926A4.453,4.453,0,0,0,333.047,46.359ZM381.172,23,370.89,53H359.953L349.672,23h10.063l5.531,20.656h.313L371.109,23Zm16.7,30.562a16.654,16.654,0,0,1-8.111-1.861,12.7,12.7,0,0,1-5.23-5.328,17.479,17.479,0,0,1-1.83-8.264,17.18,17.18,0,0,1,1.838-8.127,13.345,13.345,0,0,1,5.18-5.43,15.385,15.385,0,0,1,7.873-1.943,16.5,16.5,0,0,1,5.847,1,12.68,12.68,0,0,1,4.6,2.951,13.333,13.333,0,0,1,3,4.807,18.662,18.662,0,0,1,1.066,6.555v2.391H386.047V34.766h17.188a5.324,5.324,0,0,0-.725-2.727,5.064,5.064,0,0,0-1.93-1.863,5.682,5.682,0,0,0-2.8-.676,5.762,5.762,0,0,0-2.873.717,5.357,5.357,0,0,0-2.783,4.689v5.656a6.832,6.832,0,0,0,.721,3.213,5.171,5.171,0,0,0,2.049,2.137,6.277,6.277,0,0,0,3.168.76,7.064,7.064,0,0,0,2.291-.354,4.967,4.967,0,0,0,1.783-1.039,4.246,4.246,0,0,0,1.113-1.67l8.766.25a10.826,10.826,0,0,1-2.395,5.131,12.115,12.115,0,0,1-4.828,3.375A18.471,18.471,0,0,1,397.875,53.562ZM453.047,13H462.7V38.8a13.631,13.631,0,0,1-8.062,12.9,22.611,22.611,0,0,1-17.75,0,13.959,13.959,0,0,1-5.92-5.121,14.149,14.149,0,0,1-2.111-7.783V13h9.656V37.969a7.373,7.373,0,0,0,.914,3.689,6.53,6.53,0,0,0,2.557,2.535,8.339,8.339,0,0,0,7.6,0,6.527,6.527,0,0,0,2.549-2.535,7.385,7.385,0,0,0,.912-3.689Zm41.906,19.156-8.766.234a3.344,3.344,0,0,0-.744-1.67,4.116,4.116,0,0,0-1.572-1.146,5.587,5.587,0,0,0-2.23-.418,5.646,5.646,0,0,0-2.823.658,1.965,1.965,0,0,0-1.146,1.795,1.944,1.944,0,0,0,.711,1.527,5.77,5.77,0,0,0,2.633,1.035l5.765,1.094a13.785,13.785,0,0,1,6.691,2.854,6.805,6.805,0,0,1,2.215,5.271,8.493,8.493,0,0,1-1.818,5.367,11.633,11.633,0,0,1-4.932,3.547,19.068,19.068,0,0,1-7.156,1.258q-6.418,0-10.121-2.648a9.786,9.786,0,0,1-4.223-7.1l9.437-.219a3.614,3.614,0,0,0,1.608,2.484,5.99,5.99,0,0,0,3.346.86,5.817,5.817,0,0,0,2.986-.682,2.088,2.088,0,0,0,1.17-1.819,1.935,1.935,0,0,0-.9-1.619,7.283,7.283,0,0,0-2.742-.975l-5.25-.984a12.523,12.523,0,0,1-6.709-3.045,7.6,7.6,0,0,1-2.2-5.658,8.167,8.167,0,0,1,1.608-5.141,10.151,10.151,0,0,1,4.613-3.269,19.8,19.8,0,0,1,7.045-1.137q6.094,0,9.611,2.547A9.18,9.18,0,0,1,494.953,32.156Z" transform="translate(-2.594 -12.453)" fill="url(#linear-gradient)"/>
</svg>
